<mxfile host="app.diagrams.net" agent="Mozilla/5.0 (Windows NT 10.0; Win64; x64) AppleWebKit/537.36 (KHTML, like Gecko) Chrome/132.0.0.0 Safari/537.36" version="26.0.10">
  <diagram name="Страница — 1" id="_Jx5AFsVfHkJ55ELFbbT">
    <mxGraphModel dx="1434" dy="780" grid="1" gridSize="10" guides="1" tooltips="1" connect="1" arrows="1" fold="1" page="1" pageScale="1" pageWidth="827" pageHeight="1169" math="0" shadow="0">
      <root>
        <mxCell id="0" />
        <mxCell id="1" parent="0" />
        <mxCell id="fVHkEuGIu3ldlCe_4yWJ-2" value="Неавторизованный&lt;div&gt;пользователь&lt;/div&gt;" style="shape=umlActor;verticalLabelPosition=bottom;verticalAlign=top;html=1;outlineConnect=0;" vertex="1" parent="1">
          <mxGeometry x="165" y="110" width="30" height="60" as="geometry" />
        </mxCell>
        <mxCell id="fVHkEuGIu3ldlCe_4yWJ-3" value="Регистрация" style="ellipse;whiteSpace=wrap;html=1;" vertex="1" parent="1">
          <mxGeometry x="280" y="160" width="120" height="80" as="geometry" />
        </mxCell>
        <mxCell id="fVHkEuGIu3ldlCe_4yWJ-4" value="Авторизация" style="ellipse;whiteSpace=wrap;html=1;" vertex="1" parent="1">
          <mxGeometry x="280" y="40" width="120" height="80" as="geometry" />
        </mxCell>
        <mxCell id="fVHkEuGIu3ldlCe_4yWJ-6" value="" style="endArrow=none;html=1;rounded=0;" edge="1" parent="1" source="fVHkEuGIu3ldlCe_4yWJ-2" target="fVHkEuGIu3ldlCe_4yWJ-4">
          <mxGeometry width="50" height="50" relative="1" as="geometry">
            <mxPoint x="390" y="330" as="sourcePoint" />
            <mxPoint x="440" y="280" as="targetPoint" />
          </mxGeometry>
        </mxCell>
        <mxCell id="fVHkEuGIu3ldlCe_4yWJ-7" value="" style="endArrow=none;html=1;rounded=0;" edge="1" parent="1" source="fVHkEuGIu3ldlCe_4yWJ-2" target="fVHkEuGIu3ldlCe_4yWJ-3">
          <mxGeometry width="50" height="50" relative="1" as="geometry">
            <mxPoint x="270" y="160" as="sourcePoint" />
            <mxPoint x="319.72" y="179.59" as="targetPoint" />
          </mxGeometry>
        </mxCell>
        <mxCell id="fVHkEuGIu3ldlCe_4yWJ-8" value="Создание проекта" style="ellipse;whiteSpace=wrap;html=1;" vertex="1" parent="1">
          <mxGeometry x="520" y="260" width="120" height="80" as="geometry" />
        </mxCell>
        <mxCell id="fVHkEuGIu3ldlCe_4yWJ-10" value="Администратор" style="shape=umlActor;verticalLabelPosition=bottom;verticalAlign=top;html=1;outlineConnect=0;" vertex="1" parent="1">
          <mxGeometry x="165" y="370" width="30" height="60" as="geometry" />
        </mxCell>
        <mxCell id="fVHkEuGIu3ldlCe_4yWJ-11" value="" style="endArrow=none;html=1;rounded=0;" edge="1" source="fVHkEuGIu3ldlCe_4yWJ-10" target="fVHkEuGIu3ldlCe_4yWJ-12" parent="1">
          <mxGeometry width="50" height="50" relative="1" as="geometry">
            <mxPoint x="270" y="400" as="sourcePoint" />
            <mxPoint x="319.72" y="419.59000000000003" as="targetPoint" />
          </mxGeometry>
        </mxCell>
        <mxCell id="fVHkEuGIu3ldlCe_4yWJ-12" value="Просмотр списка своих проектов" style="ellipse;whiteSpace=wrap;html=1;" vertex="1" parent="1">
          <mxGeometry x="280" y="360" width="120" height="80" as="geometry" />
        </mxCell>
        <mxCell id="fVHkEuGIu3ldlCe_4yWJ-13" value="Приглашение пользователей на проект" style="ellipse;whiteSpace=wrap;html=1;" vertex="1" parent="1">
          <mxGeometry x="760" y="260" width="120" height="80" as="geometry" />
        </mxCell>
        <mxCell id="fVHkEuGIu3ldlCe_4yWJ-15" value="Создание задачи" style="ellipse;whiteSpace=wrap;html=1;" vertex="1" parent="1">
          <mxGeometry x="1000" y="640" width="120" height="80" as="geometry" />
        </mxCell>
        <mxCell id="fVHkEuGIu3ldlCe_4yWJ-16" value="Редактирование информации о своей задаче" style="ellipse;whiteSpace=wrap;html=1;" vertex="1" parent="1">
          <mxGeometry x="1241" y="540" width="120" height="80" as="geometry" />
        </mxCell>
        <mxCell id="fVHkEuGIu3ldlCe_4yWJ-17" value="Пользователь" style="shape=umlActor;verticalLabelPosition=bottom;verticalAlign=top;html=1;outlineConnect=0;" vertex="1" parent="1">
          <mxGeometry x="165" y="750" width="30" height="60" as="geometry" />
        </mxCell>
        <mxCell id="fVHkEuGIu3ldlCe_4yWJ-18" value="Удаление своей задачи" style="ellipse;whiteSpace=wrap;html=1;" vertex="1" parent="1">
          <mxGeometry x="1241" y="640" width="120" height="80" as="geometry" />
        </mxCell>
        <mxCell id="fVHkEuGIu3ldlCe_4yWJ-19" value="Комментирование выбранной задачи" style="ellipse;whiteSpace=wrap;html=1;" vertex="1" parent="1">
          <mxGeometry x="1241" y="940" width="120" height="80" as="geometry" />
        </mxCell>
        <mxCell id="fVHkEuGIu3ldlCe_4yWJ-20" value="Установка срока выполнения своей задачи" style="ellipse;whiteSpace=wrap;html=1;" vertex="1" parent="1">
          <mxGeometry x="1241" y="740" width="120" height="80" as="geometry" />
        </mxCell>
        <mxCell id="fVHkEuGIu3ldlCe_4yWJ-21" value="Изменение статуса своей задачи" style="ellipse;whiteSpace=wrap;html=1;" vertex="1" parent="1">
          <mxGeometry x="1241" y="840" width="120" height="80" as="geometry" />
        </mxCell>
        <mxCell id="fVHkEuGIu3ldlCe_4yWJ-22" value="Назначение выбранной задачи на выбранного пользователя" style="ellipse;whiteSpace=wrap;html=1;" vertex="1" parent="1">
          <mxGeometry x="1241" y="360" width="120" height="80" as="geometry" />
        </mxCell>
        <mxCell id="fVHkEuGIu3ldlCe_4yWJ-23" value="Просмотр информации о выбранной задаче" style="ellipse;whiteSpace=wrap;html=1;" vertex="1" parent="1">
          <mxGeometry x="1000" y="740" width="120" height="80" as="geometry" />
        </mxCell>
        <mxCell id="fVHkEuGIu3ldlCe_4yWJ-24" value="Просмотр списка задач выбранного проекта" style="ellipse;whiteSpace=wrap;html=1;" vertex="1" parent="1">
          <mxGeometry x="760" y="360" width="120" height="80" as="geometry" />
        </mxCell>
        <mxCell id="fVHkEuGIu3ldlCe_4yWJ-25" value="Просмотр информации о выбранном проекте" style="ellipse;whiteSpace=wrap;html=1;" vertex="1" parent="1">
          <mxGeometry x="520" y="740" width="120" height="80" as="geometry" />
        </mxCell>
        <mxCell id="fVHkEuGIu3ldlCe_4yWJ-26" value="Просмотр списка доступных проектов" style="ellipse;whiteSpace=wrap;html=1;" vertex="1" parent="1">
          <mxGeometry x="280" y="740" width="120" height="80" as="geometry" />
        </mxCell>
        <mxCell id="fVHkEuGIu3ldlCe_4yWJ-27" value="Просмотр информации о выбранном проекте" style="ellipse;whiteSpace=wrap;html=1;" vertex="1" parent="1">
          <mxGeometry x="520" y="360" width="120" height="80" as="geometry" />
        </mxCell>
        <mxCell id="fVHkEuGIu3ldlCe_4yWJ-29" value="&lt;span style=&quot;line-height: 100%; background-color: light-dark(rgb(255, 255, 255), rgb(255, 255, 255));&quot;&gt;&amp;lt;&amp;lt;extend&amp;gt;&amp;gt;&lt;/span&gt;" style="html=1;verticalAlign=bottom;labelBackgroundColor=none;endArrow=open;endFill=0;dashed=1;rounded=0;" edge="1" parent="1" source="fVHkEuGIu3ldlCe_4yWJ-8" target="fVHkEuGIu3ldlCe_4yWJ-12">
          <mxGeometry x="0.0769" y="9" width="160" relative="1" as="geometry">
            <mxPoint x="180" y="250" as="sourcePoint" />
            <mxPoint x="340" y="250" as="targetPoint" />
            <mxPoint as="offset" />
          </mxGeometry>
        </mxCell>
        <mxCell id="fVHkEuGIu3ldlCe_4yWJ-30" value="&lt;span style=&quot;line-height: 100%; background-color: light-dark(rgb(255, 255, 255), rgb(255, 255, 255));&quot;&gt;&amp;lt;&amp;lt;extend&amp;gt;&amp;gt;&lt;/span&gt;" style="html=1;verticalAlign=bottom;labelBackgroundColor=none;endArrow=open;endFill=0;dashed=1;rounded=0;" edge="1" parent="1" source="fVHkEuGIu3ldlCe_4yWJ-27" target="fVHkEuGIu3ldlCe_4yWJ-12">
          <mxGeometry x="0.0769" y="9" width="160" relative="1" as="geometry">
            <mxPoint x="480" y="420" as="sourcePoint" />
            <mxPoint x="376" y="472" as="targetPoint" />
            <mxPoint as="offset" />
          </mxGeometry>
        </mxCell>
        <mxCell id="fVHkEuGIu3ldlCe_4yWJ-31" value="&lt;span style=&quot;line-height: 100%; background-color: light-dark(rgb(255, 255, 255), rgb(255, 255, 255));&quot;&gt;&amp;lt;&amp;lt;extend&amp;gt;&amp;gt;&lt;/span&gt;" style="html=1;verticalAlign=bottom;labelBackgroundColor=none;endArrow=open;endFill=0;dashed=1;rounded=0;" edge="1" parent="1" source="fVHkEuGIu3ldlCe_4yWJ-13" target="fVHkEuGIu3ldlCe_4yWJ-27">
          <mxGeometry x="0.0769" y="9" width="160" relative="1" as="geometry">
            <mxPoint x="800" y="370" as="sourcePoint" />
            <mxPoint x="680" y="370" as="targetPoint" />
            <mxPoint as="offset" />
          </mxGeometry>
        </mxCell>
        <mxCell id="fVHkEuGIu3ldlCe_4yWJ-32" value="&lt;span style=&quot;line-height: 100%; background-color: light-dark(rgb(255, 255, 255), rgb(255, 255, 255));&quot;&gt;&amp;lt;&amp;lt;extend&amp;gt;&amp;gt;&lt;/span&gt;" style="html=1;verticalAlign=bottom;labelBackgroundColor=none;endArrow=open;endFill=0;dashed=1;rounded=0;" edge="1" parent="1" source="fVHkEuGIu3ldlCe_4yWJ-24" target="fVHkEuGIu3ldlCe_4yWJ-27">
          <mxGeometry x="0.0769" y="9" width="160" relative="1" as="geometry">
            <mxPoint x="720.5" y="390.47" as="sourcePoint" />
            <mxPoint x="622.5" y="428.47" as="targetPoint" />
            <mxPoint as="offset" />
          </mxGeometry>
        </mxCell>
        <mxCell id="fVHkEuGIu3ldlCe_4yWJ-33" value="Просмотр списка своих уведомлений" style="ellipse;whiteSpace=wrap;html=1;" vertex="1" parent="1">
          <mxGeometry x="280" y="640" width="120" height="80" as="geometry" />
        </mxCell>
        <mxCell id="fVHkEuGIu3ldlCe_4yWJ-34" value="" style="endArrow=none;html=1;rounded=0;" edge="1" parent="1" source="fVHkEuGIu3ldlCe_4yWJ-17" target="fVHkEuGIu3ldlCe_4yWJ-26">
          <mxGeometry width="50" height="50" relative="1" as="geometry">
            <mxPoint x="190" y="690" as="sourcePoint" />
            <mxPoint x="275" y="690" as="targetPoint" />
          </mxGeometry>
        </mxCell>
        <mxCell id="fVHkEuGIu3ldlCe_4yWJ-35" value="" style="endArrow=none;html=1;rounded=0;" edge="1" parent="1" source="fVHkEuGIu3ldlCe_4yWJ-17" target="fVHkEuGIu3ldlCe_4yWJ-33">
          <mxGeometry width="50" height="50" relative="1" as="geometry">
            <mxPoint x="230" y="794.39" as="sourcePoint" />
            <mxPoint x="323" y="760.39" as="targetPoint" />
          </mxGeometry>
        </mxCell>
        <mxCell id="fVHkEuGIu3ldlCe_4yWJ-38" value="Просмотр информации о выбранной задаче" style="ellipse;whiteSpace=wrap;html=1;" vertex="1" parent="1">
          <mxGeometry x="1000" y="360" width="120" height="80" as="geometry" />
        </mxCell>
        <mxCell id="fVHkEuGIu3ldlCe_4yWJ-39" value="&lt;span style=&quot;line-height: 100%; background-color: light-dark(rgb(255, 255, 255), rgb(255, 255, 255));&quot;&gt;&amp;lt;&amp;lt;extend&amp;gt;&amp;gt;&lt;/span&gt;" style="html=1;verticalAlign=bottom;labelBackgroundColor=none;endArrow=open;endFill=0;dashed=1;rounded=0;" edge="1" parent="1" source="fVHkEuGIu3ldlCe_4yWJ-38" target="fVHkEuGIu3ldlCe_4yWJ-24">
          <mxGeometry x="0.0769" y="9" width="160" relative="1" as="geometry">
            <mxPoint x="1027.82" y="471.96000000000004" as="sourcePoint" />
            <mxPoint x="899.8199999999999" y="439.96000000000004" as="targetPoint" />
            <mxPoint as="offset" />
          </mxGeometry>
        </mxCell>
        <mxCell id="fVHkEuGIu3ldlCe_4yWJ-41" value="&lt;span style=&quot;line-height: 100%; background-color: light-dark(rgb(255, 255, 255), rgb(255, 255, 255));&quot;&gt;&amp;lt;&amp;lt;extend&amp;gt;&amp;gt;&lt;/span&gt;" style="html=1;verticalAlign=bottom;labelBackgroundColor=none;endArrow=open;endFill=0;dashed=1;rounded=0;" edge="1" parent="1" source="fVHkEuGIu3ldlCe_4yWJ-22" target="fVHkEuGIu3ldlCe_4yWJ-38">
          <mxGeometry x="0.0769" y="9" width="160" relative="1" as="geometry">
            <mxPoint x="1160" y="464" as="sourcePoint" />
            <mxPoint x="1040" y="464" as="targetPoint" />
            <mxPoint as="offset" />
          </mxGeometry>
        </mxCell>
        <mxCell id="fVHkEuGIu3ldlCe_4yWJ-42" value="" style="endArrow=none;html=1;rounded=0;startArrow=block;startFill=0;sourcePerimeterSpacing=0;startSize=12;" edge="1" parent="1" source="fVHkEuGIu3ldlCe_4yWJ-17" target="fVHkEuGIu3ldlCe_4yWJ-10">
          <mxGeometry width="50" height="50" relative="1" as="geometry">
            <mxPoint x="200" y="480" as="sourcePoint" />
            <mxPoint x="160" y="610" as="targetPoint" />
          </mxGeometry>
        </mxCell>
        <mxCell id="fVHkEuGIu3ldlCe_4yWJ-43" value="&lt;span style=&quot;line-height: 100%; background-color: light-dark(rgb(255, 255, 255), rgb(255, 255, 255));&quot;&gt;&amp;lt;&amp;lt;extend&amp;gt;&amp;gt;&lt;/span&gt;" style="html=1;verticalAlign=bottom;labelBackgroundColor=none;endArrow=open;endFill=0;dashed=1;rounded=0;" edge="1" parent="1" source="fVHkEuGIu3ldlCe_4yWJ-25" target="fVHkEuGIu3ldlCe_4yWJ-26">
          <mxGeometry x="0.0769" y="9" width="160" relative="1" as="geometry">
            <mxPoint x="560" y="690" as="sourcePoint" />
            <mxPoint x="440" y="690" as="targetPoint" />
            <mxPoint as="offset" />
          </mxGeometry>
        </mxCell>
        <mxCell id="fVHkEuGIu3ldlCe_4yWJ-44" value="Редактирование информации о выбранном проекте" style="ellipse;whiteSpace=wrap;html=1;" vertex="1" parent="1">
          <mxGeometry x="760" y="460" width="120" height="80" as="geometry" />
        </mxCell>
        <mxCell id="fVHkEuGIu3ldlCe_4yWJ-45" value="Удаление выбранного проекта" style="ellipse;whiteSpace=wrap;html=1;" vertex="1" parent="1">
          <mxGeometry x="760" y="560" width="120" height="80" as="geometry" />
        </mxCell>
        <mxCell id="fVHkEuGIu3ldlCe_4yWJ-46" value="&lt;span style=&quot;line-height: 100%; background-color: light-dark(rgb(255, 255, 255), rgb(255, 255, 255));&quot;&gt;&amp;lt;&amp;lt;extend&amp;gt;&amp;gt;&lt;/span&gt;" style="html=1;verticalAlign=bottom;labelBackgroundColor=none;endArrow=open;endFill=0;dashed=1;rounded=0;" edge="1" parent="1" source="fVHkEuGIu3ldlCe_4yWJ-44" target="fVHkEuGIu3ldlCe_4yWJ-27">
          <mxGeometry x="0.0769" y="9" width="160" relative="1" as="geometry">
            <mxPoint x="720" y="520" as="sourcePoint" />
            <mxPoint x="600" y="520" as="targetPoint" />
            <mxPoint as="offset" />
          </mxGeometry>
        </mxCell>
        <mxCell id="fVHkEuGIu3ldlCe_4yWJ-47" value="&lt;span style=&quot;line-height: 100%; background-color: light-dark(rgb(255, 255, 255), rgb(255, 255, 255));&quot;&gt;&amp;lt;&amp;lt;extend&amp;gt;&amp;gt;&lt;/span&gt;" style="html=1;verticalAlign=bottom;labelBackgroundColor=none;endArrow=open;endFill=0;dashed=1;rounded=0;" edge="1" parent="1" source="fVHkEuGIu3ldlCe_4yWJ-45" target="fVHkEuGIu3ldlCe_4yWJ-27">
          <mxGeometry x="0.0769" y="9" width="160" relative="1" as="geometry">
            <mxPoint x="748.12" y="517.8" as="sourcePoint" />
            <mxPoint x="610.12" y="459.8" as="targetPoint" />
            <mxPoint as="offset" />
          </mxGeometry>
        </mxCell>
        <mxCell id="fVHkEuGIu3ldlCe_4yWJ-48" value="Просмотр списка задач выбранного проекта" style="ellipse;whiteSpace=wrap;html=1;" vertex="1" parent="1">
          <mxGeometry x="760" y="740" width="120" height="80" as="geometry" />
        </mxCell>
        <mxCell id="fVHkEuGIu3ldlCe_4yWJ-49" value="&lt;span style=&quot;line-height: 100%; background-color: light-dark(rgb(255, 255, 255), rgb(255, 255, 255));&quot;&gt;&amp;lt;&amp;lt;extend&amp;gt;&amp;gt;&lt;/span&gt;" style="html=1;verticalAlign=bottom;labelBackgroundColor=none;endArrow=open;endFill=0;dashed=1;rounded=0;" edge="1" parent="1" source="fVHkEuGIu3ldlCe_4yWJ-48" target="fVHkEuGIu3ldlCe_4yWJ-25">
          <mxGeometry x="0.0769" y="9" width="160" relative="1" as="geometry">
            <mxPoint x="760" y="710" as="sourcePoint" />
            <mxPoint x="640" y="710" as="targetPoint" />
            <mxPoint as="offset" />
          </mxGeometry>
        </mxCell>
        <mxCell id="fVHkEuGIu3ldlCe_4yWJ-50" value="&lt;span style=&quot;line-height: 100%; background-color: light-dark(rgb(255, 255, 255), rgb(255, 255, 255));&quot;&gt;&amp;lt;&amp;lt;extend&amp;gt;&amp;gt;&lt;/span&gt;" style="html=1;verticalAlign=bottom;labelBackgroundColor=none;endArrow=open;endFill=0;dashed=1;rounded=0;" edge="1" parent="1" source="fVHkEuGIu3ldlCe_4yWJ-23" target="fVHkEuGIu3ldlCe_4yWJ-48">
          <mxGeometry x="0.0769" y="9" width="160" relative="1" as="geometry">
            <mxPoint x="1040" y="830" as="sourcePoint" />
            <mxPoint x="920" y="830" as="targetPoint" />
            <mxPoint as="offset" />
          </mxGeometry>
        </mxCell>
        <mxCell id="fVHkEuGIu3ldlCe_4yWJ-51" value="&lt;span style=&quot;line-height: 100%; background-color: light-dark(rgb(255, 255, 255), rgb(255, 255, 255));&quot;&gt;&amp;lt;&amp;lt;extend&amp;gt;&amp;gt;&lt;/span&gt;" style="html=1;verticalAlign=bottom;labelBackgroundColor=none;endArrow=open;endFill=0;dashed=1;rounded=0;" edge="1" parent="1" source="fVHkEuGIu3ldlCe_4yWJ-15" target="fVHkEuGIu3ldlCe_4yWJ-48">
          <mxGeometry x="0.0769" y="9" width="160" relative="1" as="geometry">
            <mxPoint x="1030" y="720" as="sourcePoint" />
            <mxPoint x="910" y="720" as="targetPoint" />
            <mxPoint as="offset" />
          </mxGeometry>
        </mxCell>
        <mxCell id="fVHkEuGIu3ldlCe_4yWJ-52" value="&lt;span style=&quot;line-height: 100%; background-color: light-dark(rgb(255, 255, 255), rgb(255, 255, 255));&quot;&gt;&amp;lt;&amp;lt;extend&amp;gt;&amp;gt;&lt;/span&gt;" style="html=1;verticalAlign=bottom;labelBackgroundColor=none;endArrow=open;endFill=0;dashed=1;rounded=0;" edge="1" parent="1" source="fVHkEuGIu3ldlCe_4yWJ-16" target="fVHkEuGIu3ldlCe_4yWJ-23">
          <mxGeometry x="0.0769" y="9" width="160" relative="1" as="geometry">
            <mxPoint x="1129.07" y="809.95" as="sourcePoint" />
            <mxPoint x="991.0699999999999" y="867.95" as="targetPoint" />
            <mxPoint as="offset" />
          </mxGeometry>
        </mxCell>
        <mxCell id="fVHkEuGIu3ldlCe_4yWJ-53" value="&lt;span style=&quot;line-height: 100%; background-color: light-dark(rgb(255, 255, 255), rgb(255, 255, 255));&quot;&gt;&amp;lt;&amp;lt;extend&amp;gt;&amp;gt;&lt;/span&gt;" style="html=1;verticalAlign=bottom;labelBackgroundColor=none;endArrow=open;endFill=0;dashed=1;rounded=0;" edge="1" parent="1" source="fVHkEuGIu3ldlCe_4yWJ-20" target="fVHkEuGIu3ldlCe_4yWJ-23">
          <mxGeometry x="0.0769" y="9" width="160" relative="1" as="geometry">
            <mxPoint x="1273" y="621" as="sourcePoint" />
            <mxPoint x="1108" y="759" as="targetPoint" />
            <mxPoint as="offset" />
          </mxGeometry>
        </mxCell>
        <mxCell id="fVHkEuGIu3ldlCe_4yWJ-54" value="&lt;span style=&quot;line-height: 100%; background-color: light-dark(rgb(255, 255, 255), rgb(255, 255, 255));&quot;&gt;&amp;lt;&amp;lt;extend&amp;gt;&amp;gt;&lt;/span&gt;" style="html=1;verticalAlign=bottom;labelBackgroundColor=none;endArrow=open;endFill=0;dashed=1;rounded=0;" edge="1" parent="1" source="fVHkEuGIu3ldlCe_4yWJ-21" target="fVHkEuGIu3ldlCe_4yWJ-23">
          <mxGeometry x="0.0769" y="9" width="160" relative="1" as="geometry">
            <mxPoint x="1283" y="631" as="sourcePoint" />
            <mxPoint x="1118" y="769" as="targetPoint" />
            <mxPoint as="offset" />
          </mxGeometry>
        </mxCell>
        <mxCell id="fVHkEuGIu3ldlCe_4yWJ-55" value="&lt;span style=&quot;line-height: 100%; background-color: light-dark(rgb(255, 255, 255), rgb(255, 255, 255));&quot;&gt;&amp;lt;&amp;lt;extend&amp;gt;&amp;gt;&lt;/span&gt;" style="html=1;verticalAlign=bottom;labelBackgroundColor=none;endArrow=open;endFill=0;dashed=1;rounded=0;" edge="1" parent="1" source="fVHkEuGIu3ldlCe_4yWJ-19" target="fVHkEuGIu3ldlCe_4yWJ-23">
          <mxGeometry x="0.0769" y="9" width="160" relative="1" as="geometry">
            <mxPoint x="1293" y="641" as="sourcePoint" />
            <mxPoint x="1128" y="779" as="targetPoint" />
            <mxPoint as="offset" />
          </mxGeometry>
        </mxCell>
        <mxCell id="fVHkEuGIu3ldlCe_4yWJ-56" value="&lt;span style=&quot;line-height: 100%; background-color: light-dark(rgb(255, 255, 255), rgb(255, 255, 255));&quot;&gt;&amp;lt;&amp;lt;extend&amp;gt;&amp;gt;&lt;/span&gt;" style="html=1;verticalAlign=bottom;labelBackgroundColor=none;endArrow=open;endFill=0;dashed=1;rounded=0;" edge="1" parent="1" source="fVHkEuGIu3ldlCe_4yWJ-18" target="fVHkEuGIu3ldlCe_4yWJ-23">
          <mxGeometry x="0.0769" y="9" width="160" relative="1" as="geometry">
            <mxPoint x="1251" y="790" as="sourcePoint" />
            <mxPoint x="1130" y="790" as="targetPoint" />
            <mxPoint as="offset" />
          </mxGeometry>
        </mxCell>
      </root>
    </mxGraphModel>
  </diagram>
</mxfile>
